<svg width="27" height="16" viewBox="0 0 27 16" fill="none" xmlns="http://www.w3.org/2000/svg">
<path d="M5.68211 6.71855C5.59091 6.61027 5.46528 6.55438 5.31729 6.55438H5.08842C5.02131 6.55438 4.93354 6.53517 4.84062 6.39196C4.75458 6.25748 4.71156 6.07411 4.71156 5.84707V0.548347C4.71156 0.392913 4.65821 0.25669 4.56012 0.155396C4.46031 0.0541024 4.32781 0.00170898 4.17293 0.00170898C4.02666 0.00170898 3.89588 0.0541024 3.79435 0.15365C3.68937 0.254944 3.63431 0.391167 3.63431 0.548347V5.84532C3.63431 6.35878 3.76681 6.7884 4.02838 7.12198C4.30027 7.46952 4.65649 7.64591 5.08842 7.64591H5.20716C5.37408 7.64591 5.51519 7.59876 5.62704 7.5027C5.74578 7.40141 5.80945 7.26169 5.80945 7.09927C5.81117 6.94733 5.76815 6.81984 5.68211 6.71855Z" fill="#005659"/>
<path fill-rule="evenodd" clip-rule="evenodd" d="M10.8982 4.82364C10.8982 4.97558 10.8448 5.10656 10.7467 5.20087C10.6521 5.29343 10.523 5.34233 10.3767 5.34757H6.89891C6.97119 5.71083 7.13295 6.00773 7.3928 6.24699C7.70083 6.53166 8.07769 6.66963 8.54576 6.66963C8.74366 6.66963 8.94672 6.63296 9.14806 6.5631C9.34767 6.49324 9.50599 6.40766 9.62129 6.30637C9.845 6.12998 10.0859 6.11426 10.3062 6.27668L10.3234 6.29065C10.4421 6.40068 10.5041 6.5369 10.5041 6.6836C10.5041 6.81808 10.4473 6.94208 10.3406 7.03988C10.1169 7.23199 9.83811 7.38917 9.50771 7.51142C9.17731 7.63367 8.85379 7.6948 8.54576 7.6948C8.02607 7.6948 7.55456 7.57604 7.14327 7.34027C6.73027 7.1045 6.40159 6.76918 6.16928 6.34654C5.93696 5.92565 5.81995 5.44537 5.81995 4.91795C5.81995 4.38528 5.93008 3.90326 6.14863 3.48411C6.3689 3.06147 6.67865 2.72615 7.071 2.48864C7.46335 2.25112 7.91421 2.13062 8.40982 2.13062C8.89337 2.13062 9.33047 2.24937 9.70733 2.4799C10.0842 2.71044 10.3802 3.03527 10.5884 3.44394C10.7932 3.84737 10.8982 4.31193 10.8982 4.82364ZM7.38586 3.54349C7.16043 3.76005 7.009 4.029 6.92812 4.36083H9.82774C9.76062 4.02551 9.62124 3.75656 9.40269 3.54C9.14456 3.28327 8.81932 3.15927 8.40976 3.15927C7.9916 3.15927 7.65603 3.28502 7.38586 3.54349Z" fill="#005659"/>
<path fill-rule="evenodd" clip-rule="evenodd" d="M20.9806 2.49388C21.3953 2.73663 21.7275 3.07544 21.9667 3.49983C22.2041 3.92422 22.3246 4.401 22.3229 4.91969V7.10275C22.3229 7.25295 22.2695 7.38742 22.1663 7.49046C22.0648 7.59525 21.9288 7.64939 21.7757 7.64939C21.6225 7.64939 21.4883 7.597 21.3867 7.49745C21.2818 7.3979 21.2267 7.25993 21.2267 7.10275V7.04686C21.0667 7.19182 20.8877 7.31756 20.6898 7.41886C20.3353 7.60223 19.9395 7.6948 19.5145 7.6948C19.0171 7.6948 18.5611 7.5708 18.1584 7.32804C17.7558 7.08529 17.434 6.74822 17.2017 6.32733C16.9693 5.90643 16.8523 5.43315 16.8523 4.91795C16.8523 4.401 16.9728 3.92596 17.212 3.50158C17.4512 3.07719 17.7816 2.73838 18.198 2.49562C18.6127 2.25287 19.0808 2.13062 19.5885 2.13062C20.0961 2.13062 20.5642 2.25287 20.9806 2.49388ZM20.4333 3.39679C20.1838 3.24485 19.8998 3.168 19.5883 3.168C19.2769 3.168 18.9912 3.24485 18.7382 3.39504C18.4853 3.54698 18.2839 3.7583 18.1394 4.02027C17.9948 4.28398 17.9208 4.58612 17.9208 4.9162C17.9208 5.24802 17.9948 5.54841 18.1394 5.81213C18.2822 6.07409 18.4836 6.28367 18.7365 6.43212C18.9895 6.58231 19.2769 6.65741 19.5883 6.65741C19.8998 6.65741 20.1855 6.58231 20.435 6.43386C20.6845 6.28367 20.8841 6.07584 21.0287 5.81387C21.1732 5.55016 21.2472 5.24802 21.2472 4.91795C21.2472 4.58787 21.1732 4.28573 21.0287 4.02202C20.8841 3.7583 20.6828 3.54873 20.4333 3.39679Z" fill="#005659"/>
<path d="M24.7768 6.71855C24.6856 6.61027 24.5599 6.55263 24.412 6.55263H24.1831C24.116 6.55263 24.0282 6.53342 23.9353 6.39021C23.8492 6.25574 23.8062 6.07236 23.8062 5.84532V0.548347C23.8062 0.392913 23.7529 0.25669 23.6548 0.155396C23.555 0.0541024 23.4225 0.00170898 23.2676 0.00170898C23.1213 0.00170898 22.9905 0.0541024 22.889 0.15365C22.784 0.254944 22.729 0.391167 22.729 0.548347V5.84532C22.729 6.35878 22.8615 6.7884 23.123 7.12198C23.3949 7.46952 23.7512 7.64591 24.1831 7.64591H24.3018C24.4687 7.64591 24.6099 7.59876 24.7217 7.5027C24.8404 7.40141 24.9041 7.26169 24.9041 7.09927C24.9058 6.94733 24.8628 6.81809 24.7768 6.71855Z" fill="#005659"/>
<path d="M4.71175 11.055C4.49837 10.6673 4.20066 10.3669 3.8238 10.1643C3.4521 9.96522 3.03049 9.86218 2.56758 9.86218C2.20621 9.86218 1.86548 9.93379 1.55573 10.0735C1.38364 10.1521 1.22533 10.2464 1.08078 10.3582C1.06185 10.2516 1.01366 10.1573 0.941388 10.0805C0.841579 9.97396 0.707353 9.91807 0.552477 9.91807C0.399322 9.91807 0.263375 9.97221 0.161846 10.077C0.0585952 10.1818 0.00524902 10.318 0.00524902 10.4734V14.8413C0.00524902 14.9985 0.060316 15.1365 0.165287 15.236C0.268538 15.3355 0.399322 15.3879 0.554198 15.3879C0.707353 15.3879 0.841579 15.3338 0.941388 15.2343C1.0412 15.1347 1.09282 14.9985 1.09282 14.8413V12.0906C1.09282 11.8741 1.15133 11.6837 1.27007 11.5073C1.39225 11.3275 1.55573 11.1877 1.76739 11.0847C1.98078 10.9799 2.22686 10.9275 2.49531 10.9275C2.93757 10.9275 3.28173 11.0515 3.55019 11.3065C3.8152 11.558 3.94254 11.9247 3.94254 12.4242V14.8396C3.94254 14.9897 3.99588 15.1242 4.09913 15.2273C4.20066 15.3321 4.33661 15.3862 4.48977 15.3862C4.63776 15.3862 4.77026 15.3321 4.87179 15.2273C4.97504 15.1242 5.02839 14.9897 5.02839 14.8396V12.4242C5.02839 11.9003 4.9217 11.4392 4.71175 11.055Z" fill="#001820"/>
<path fill-rule="evenodd" clip-rule="evenodd" d="M9.47833 10.2342C9.89133 10.4734 10.2217 10.8105 10.4609 11.2349C10.6984 11.6593 10.8206 12.1395 10.8189 12.66C10.8189 13.1804 10.7001 13.6589 10.4644 14.0798C10.2286 14.5025 9.89822 14.8378 9.48177 15.0771C9.06705 15.3163 8.59554 15.4368 8.08273 15.4368C7.56992 15.4368 7.09841 15.3163 6.68368 15.0771C6.26724 14.8378 5.93684 14.5025 5.70108 14.0798C5.46533 13.6589 5.34659 13.1804 5.34659 12.66C5.34659 12.1395 5.46533 11.661 5.70108 11.2366C5.93684 10.8105 6.26724 10.4734 6.68368 10.2342C7.09841 9.99489 7.56992 9.87439 8.08273 9.87439C8.59726 9.87439 9.06705 9.99489 9.47833 10.2342ZM7.23264 14.1741C7.4856 14.3243 7.77298 14.3994 8.08445 14.3994C8.40109 14.3994 8.69019 14.3226 8.93971 14.1707C9.18923 14.0222 9.38713 13.8144 9.52824 13.5524C9.67107 13.2887 9.74335 12.9866 9.74335 12.6565C9.74335 12.3194 9.67107 12.0138 9.52824 11.7501C9.38713 11.4881 9.18923 11.2803 8.93971 11.1318C8.69019 10.9834 8.40281 10.9083 8.08445 10.9083C7.77298 10.9083 7.4856 10.9851 7.23264 11.1336C6.97967 11.2838 6.78005 11.4916 6.6355 11.7536C6.49095 12.0173 6.41696 12.3212 6.41696 12.6582C6.41696 12.9901 6.49095 13.2904 6.6355 13.5542C6.77833 13.8161 6.97967 14.0257 7.23264 14.1741Z" fill="#001820"/>
<path fill-rule="evenodd" clip-rule="evenodd" d="M16.2706 3.53305C16.0383 3.10692 15.7114 2.76462 15.2984 2.51487C14.8854 2.26688 14.419 2.13939 13.9114 2.1324C13.4003 2.12891 12.9339 2.24243 12.5158 2.4782C12.0976 2.71572 11.7603 3.04929 11.5177 3.47018C11.2733 3.89108 11.146 4.36611 11.1391 4.88131C11.1322 5.39477 11.2441 5.8698 11.4695 6.29593C11.6966 6.72207 12.015 7.06262 12.4142 7.30887C12.8152 7.55687 13.2695 7.68611 13.7651 7.69309C14.1919 7.69658 14.5877 7.61101 14.9456 7.43287C15.1487 7.33158 15.3328 7.20583 15.4963 7.05913L15.5135 10.4822C15.3534 10.3372 15.1745 10.2132 14.9783 10.1119C14.6238 9.92854 14.228 9.83598 13.8012 9.83598C13.3056 9.83598 12.8496 9.95998 12.4452 10.2027C12.0425 10.4455 11.7207 10.7826 11.4884 11.2035C11.2561 11.6243 11.1391 12.0976 11.1391 12.6128C11.1391 13.1263 11.2596 13.6031 11.4987 14.0275C11.7362 14.4536 12.0683 14.7924 12.4848 15.0334C12.9012 15.2762 13.3693 15.3984 13.8752 15.3984C14.3829 15.3984 14.8492 15.2762 15.2657 15.0334C15.6821 14.7907 16.0125 14.4518 16.25 14.0275C16.4892 13.6048 16.6097 13.128 16.6097 12.6128V4.95117C16.6183 4.43771 16.503 3.95919 16.2706 3.53305ZM13.87 3.16805H13.8992C14.2107 3.17329 14.4947 3.25362 14.7407 3.40731C14.9903 3.56449 15.1864 3.77756 15.3275 4.04127C15.4704 4.30673 15.5392 4.60887 15.534 4.93894C15.5323 5.02277 15.5306 5.0839 15.5254 5.12581C15.5186 5.15026 15.5134 5.17646 15.5117 5.2044C15.4497 5.63578 15.269 5.98157 14.961 6.25577C14.6581 6.52472 14.3036 6.6557 13.8803 6.6557H13.8528C13.5361 6.65046 13.2574 6.57362 13.0044 6.41993C12.7532 6.26624 12.5553 6.05492 12.4142 5.79121C12.2713 5.524 12.2025 5.22361 12.2077 4.89354C12.2128 4.56346 12.2903 4.26307 12.4382 4.0011C12.5862 3.74088 12.791 3.53305 13.0457 3.38461C13.2969 3.23965 13.5671 3.16805 13.87 3.16805ZM15.3155 13.507C15.46 13.2416 15.534 12.9412 15.534 12.6111C15.534 12.5273 15.5323 12.4626 15.5271 12.4242C15.5202 12.4015 15.5168 12.3753 15.5151 12.3491C15.46 11.9195 15.2793 11.5615 14.9782 11.2873C14.6736 11.0078 14.3122 10.8716 13.8751 10.8716C13.5585 10.8716 13.2797 10.945 13.0216 11.0969C12.7686 11.2454 12.569 11.4532 12.4244 11.7152C12.2799 11.9806 12.2059 12.281 12.2059 12.6111C12.2059 12.9412 12.2799 13.2433 12.4244 13.507C12.569 13.7707 12.7703 13.9803 13.0233 14.1322C13.2814 14.2859 13.5585 14.361 13.8751 14.361C14.1866 14.361 14.4705 14.2842 14.7201 14.1322C14.9713 13.9803 15.1709 13.769 15.3155 13.507Z" fill="url(#paint0_linear)"/>
<path fill-rule="evenodd" clip-rule="evenodd" d="M22.0095 12.5674C22.0095 12.7194 21.9562 12.8503 21.8581 12.9446C21.7635 13.0372 21.6344 13.0861 21.4881 13.0896H18.0103C18.0826 13.4529 18.2443 13.7498 18.5042 13.989C18.8122 14.2737 19.1891 14.4117 19.6572 14.4117C19.855 14.4117 20.0581 14.375 20.2594 14.3051C20.4591 14.2353 20.6174 14.1497 20.7327 14.0484C20.9564 13.8738 21.199 13.858 21.4176 14.0205L21.4348 14.0344C21.5535 14.1445 21.6155 14.2807 21.6155 14.4274C21.6155 14.5619 21.5587 14.6859 21.452 14.7837C21.2283 14.9758 20.9495 15.1329 20.6191 15.2552C20.2887 15.3774 19.9652 15.4386 19.6572 15.4386C19.1392 15.4386 18.6659 15.3198 18.2547 15.084C17.8417 14.8483 17.513 14.513 17.2807 14.0903C17.0484 13.6694 16.9313 13.1891 16.9313 12.6617C16.9313 12.1291 17.0415 11.647 17.26 11.2279C17.4803 10.8052 17.79 10.4699 18.1824 10.2324C18.5747 9.99489 19.0256 9.87439 19.5212 9.87439C20.0048 9.87439 20.4419 9.99315 20.8187 10.2237C21.1956 10.4542 21.4916 10.779 21.6998 11.1877C21.9046 11.5911 22.0095 12.0557 22.0095 12.5674ZM18.4972 11.2855C18.2718 11.5021 18.1204 11.771 18.0395 12.1029H20.9374C20.8703 11.7693 20.7309 11.4986 20.5124 11.282C20.2542 11.0253 19.929 10.9013 19.5194 10.9013C19.103 10.9013 18.7674 11.027 18.4972 11.2855Z" fill="#001820"/>
<path d="M26.2171 12.6949C25.9057 12.4172 25.417 12.2251 24.7217 12.1064C24.159 12.012 23.9061 11.8968 23.7925 11.8182C23.6548 11.7221 23.5911 11.6016 23.5911 11.4427C23.5911 11.3501 23.6135 11.2139 23.8097 11.0777C23.9783 10.9607 24.2124 10.903 24.5083 10.903C24.973 10.903 25.3275 11.0515 25.5959 11.3624C25.7164 11.4933 25.8764 11.5632 26.0554 11.5632C26.169 11.5632 26.2653 11.5353 26.3307 11.4881C26.4822 11.3921 26.5665 11.2436 26.5665 11.0725C26.5665 10.9729 26.5338 10.8699 26.4649 10.7581L26.4546 10.7424C26.2533 10.4699 25.9848 10.2551 25.6579 10.1014C25.3344 9.95123 24.954 9.87439 24.5256 9.87439C23.9697 9.87439 23.4965 10.0124 23.1196 10.2813C22.7238 10.566 22.5225 10.9729 22.5225 11.4899C22.5225 11.8968 22.6963 12.2461 23.037 12.5272C23.3571 12.7927 23.8389 12.9796 24.4688 13.0844C24.9024 13.1542 25.2173 13.2555 25.4066 13.3865C25.5684 13.5 25.6441 13.6258 25.6441 13.7794C25.6389 13.9593 25.5615 14.0956 25.398 14.2108C25.2173 14.3366 24.93 14.3994 24.5445 14.3994C24.276 14.3994 24.03 14.3575 23.8114 14.2719C23.6015 14.1916 23.4328 14.0746 23.3072 13.9279C23.1145 13.7009 22.8082 13.6589 22.5483 13.8563C22.3693 14.0047 22.3315 14.1707 22.3315 14.2859C22.3315 14.3994 22.3779 14.5147 22.4743 14.63C22.7066 14.8867 23.0164 15.0875 23.3915 15.229C23.7581 15.367 24.147 15.4368 24.5462 15.4368C24.9472 15.4368 25.3137 15.3687 25.6338 15.236C25.9625 15.0998 26.2257 14.9042 26.4133 14.6544C26.6061 14.3977 26.7041 14.1025 26.7041 13.7742C26.7024 13.3463 26.5389 12.9831 26.2171 12.6949Z" fill="#001820"/>
<defs>
<linearGradient id="paint0_linear" x1="16.6116" y1="15.3976" x2="16.6116" y2="2.13017" gradientUnits="userSpaceOnUse">
<stop stop-color="#001820"/>
<stop offset="0.2026" stop-color="#001820"/>
<stop offset="0.7923" stop-color="#005659"/>
<stop offset="1" stop-color="#005659"/>
</linearGradient>
</defs>
</svg>
