<svg width="161" height="110" viewBox="0 0 161 110" fill="none" xmlns="http://www.w3.org/2000/svg">
<path fill-rule="evenodd" clip-rule="evenodd" d="M3.78895 0H148.92C153.637 7.76685 154.258 18.2763 145.023 31.249C135.818 44.2115 142.576 52.4105 149.868 61.2563C156.945 69.8413 164.523 79.0355 158.5 93.7848C150.007 114.599 132.654 111.261 124.807 102.036C122.154 98.9288 120.383 96.0878 118.877 93.6724C114.072 85.9627 111.969 82.59 92.4999 88.7319C73.6692 94.6656 54.0077 83.4471 57.377 61.8447C60.7377 40.2675 47.8921 41.1344 35.1113 41.9969C29.9891 42.3425 24.8772 42.6875 20.8233 41.5866C-1.84918 35.4086 -2.18862 21.8555 3.78895 0Z" fill="#CBEDED"/>
</svg>
