<svg width="161" height="110" viewBox="0 0 161 110" fill="none" xmlns="http://www.w3.org/2000/svg">
<path fill-rule="evenodd" clip-rule="evenodd" d="M3.78894 0H148.92C153.637 7.7742 154.258 18.2936 145.023 31.2786C135.818 44.2534 142.576 52.4601 149.868 61.3143C156.945 69.9074 164.523 79.1104 158.5 93.8736C150.007 114.708 132.654 111.367 124.807 102.133C122.154 99.0225 120.383 96.1788 118.877 93.7611C114.072 86.0442 111.969 82.6682 92.4999 88.8159C73.6692 94.7552 54.0077 83.5262 57.3769 61.9033C60.7377 40.3057 47.8921 41.1733 35.1113 42.0366C29.9891 42.3826 24.8772 42.7279 20.8232 41.626C-1.8492 35.4422 -2.18864 21.8762 3.78894 0Z" fill="#ECF8F8"/>
</svg>
